HIERARCHY
ROOT Hips
{
	OFFSET 53.585999 -8.379066 96.221100
	CHANNELS 6 Xposition Yposition Zposition Xrotation Yrotation Zrotation
	JOINT spine
	{
		OFFSET 0.000000 -0.467661 8.132492
		CHANNELS 3 Xrotation Yrotation Zrotation
		JOINT spine1
		{
			OFFSET 0.000000 -0.000002 10.349800
			CHANNELS 3 Xrotation Yrotation Zrotation
			JOINT spine2
			{
				OFFSET 0.000000 -0.000001 9.916992
				CHANNELS 3 Xrotation Yrotation Zrotation
				JOINT Neck
				{
					OFFSET 0.000000 -1.213904 25.461006
					CHANNELS 3 Xrotation Yrotation Zrotation
					JOINT Head
					{
						OFFSET 0.000000 -0.000001 7.692444
						CHANNELS 3 Xrotation Yrotation Zrotation
						End Site
						{
							OFFSET 0.000000 6.140627 18.619995
						}
					}
				}
				JOINT RightShoulder
				{
					OFFSET -4.175751 0.581443 10.709602
					CHANNELS 3 Xrotation Yrotation Zrotation
					JOINT RightArm
					{
						OFFSET 0.000000 -0.000003 14.046600
						CHANNELS 3 Xrotation Yrotation Zrotation
						JOINT RightArmRoll
						{
							OFFSET 0.000000 -0.000001 7.090973
							CHANNELS 3 Xrotation Yrotation Zrotation
							JOINT RightForeArm
							{
								OFFSET 0.000000 -0.000003 20.653503
								CHANNELS 3 Xrotation Yrotation Zrotation
								JOINT RightForeArmRoll
								{
									OFFSET 0.000000 -0.000002 7.957184
									CHANNELS 3 Xrotation Yrotation Zrotation
									JOINT RightHand
									{
										OFFSET 0.000000 -0.000002 15.968292
										CHANNELS 3 Xrotation Yrotation Zrotation
										End Site
										{
											OFFSET 0.000000 0.000000 0.100006
										}
									}
								}
							}
						}
					}
				}
				JOINT LeftShoulder
				{
					OFFSET 4.175751 0.581443 10.709602
					CHANNELS 3 Xrotation Yrotation Zrotation
					JOINT LeftArm
					{
						OFFSET 0.000000 -0.000003 14.046600
						CHANNELS 3 Xrotation Yrotation Zrotation
						JOINT LeftArmRoll
						{
							OFFSET 0.000000 -0.000001 7.090973
							CHANNELS 3 Xrotation Yrotation Zrotation
							JOINT LeftForeArm
							{
								OFFSET 0.000000 -0.000003 20.653503
								CHANNELS 3 Xrotation Yrotation Zrotation
								JOINT LeftForeArmRoll
								{
									OFFSET 0.000000 -0.000002 7.957184
									CHANNELS 3 Xrotation Yrotation Zrotation
									JOINT LeftHand
									{
										OFFSET 0.000000 -0.000002 15.968292
										CHANNELS 3 Xrotation Yrotation Zrotation
										End Site
										{
											OFFSET 0.000000 0.000000 0.100006
										}
									}
								}
							}
						}
					}
				}
			}
		}
	}
	JOINT RightUpLeg
	{
		OFFSET -7.208340 1.108840 -1.321823
		CHANNELS 3 Xrotation Yrotation Zrotation
		JOINT RightUpLegRoll
		{
			OFFSET 0.000000 -0.000003 18.723801
			CHANNELS 3 Xrotation Yrotation Zrotation
			JOINT RightLeg
			{
				OFFSET 0.000000 0.000004 -23.186600
				CHANNELS 3 Xrotation Yrotation Zrotation
				JOINT RightLegRoll
				{
					OFFSET 0.000000 -0.000004 23.262398
					CHANNELS 3 Xrotation Yrotation Zrotation
					JOINT RightFoot
					{
						OFFSET 0.000000 -0.000003 19.362099
						CHANNELS 3 Xrotation Yrotation Zrotation
						JOINT RightToeBase
						{
							OFFSET 0.000000 -0.000003 16.185699
							CHANNELS 3 Xrotation Yrotation Zrotation
							End Site
							{
								OFFSET 0.006859 0.903521 7.838623
							}
						}
					}
				}
			}
		}
	}
	JOINT LeftUpLeg
	{
		OFFSET 7.208340 1.108840 -1.321823
		CHANNELS 3 Xrotation Yrotation Zrotation
		JOINT LeftUpLegRoll
		{
			OFFSET 0.000000 -0.000003 18.723900
			CHANNELS 3 Xrotation Yrotation Zrotation
			JOINT LeftLeg
			{
				OFFSET 0.000000 -0.000004 23.186501
				CHANNELS 3 Xrotation Yrotation Zrotation
				JOINT LeftLegRoll
				{
					OFFSET 0.000000 -0.000004 23.477493
					CHANNELS 3 Xrotation Yrotation Zrotation
					JOINT LeftFoot
					{
						OFFSET 0.000000 -0.000003 19.147003
						CHANNELS 3 Xrotation Yrotation Zrotation
						JOINT LeftToeBase
						{
							OFFSET 0.000000 -0.000003 16.185699
							CHANNELS 3 Xrotation Yrotation Zrotation
							End Site
							{
								OFFSET -0.030746 0.903521 7.838623
							}
						}
					}
				}
			}
		}
	}
}
MOTION
Frames: 9
Frame Time: 0.041667
52.968903 -6.663196 96.264282 -5.265794 1.000152 0.229094 -0.882986 -0.372541 0.088285 2.237440 -0.745474 0.164649 3.882568 -0.743448 0.173567 11.524678 4.050395 -3.551563 -1.780042 -4.798123 -3.385711 -17.546665 -57.733185 -20.727503 -44.194763 -119.884928 -18.530469 -0.000002 -0.000001 0.000000 0.031729 -4.304298 -0.681614 -0.000002 0.000002 -3.045292 -5.000179 -7.999489 0.000071 -14.503970 59.913504 17.162141 -42.879699 117.078704 32.905290 0.000001 -0.000007 0.000004 0.071504 9.502252 1.086507 -0.000001 -0.000009 3.043750 -5.000212 7.998852 -0.000153 -0.454878 -174.268179 3.100980 -179.999991 0.000005 -1.056994 169.388145 -1.368204 -0.574315 0.000002 -0.000001 0.084039 69.373063 6.417904 3.337575 25.456957 -7.355613 -0.000001 0.835469 174.161614 -1.437972 -0.000019 -0.000006 -1.006080 -12.248674 1.232147 0.683231 -0.000002 0.000001 -0.173464 71.910738 -6.189764 -3.878844 25.457563 7.355621 -0.001059 
52.971504 -6.668187 96.263695 -5.267386 1.000249 0.232337 -0.881830 -0.373225 0.087397 2.239781 -0.746836 0.163587 3.884908 -0.744822 0.172521 11.516977 4.106870 -3.561352 -1.766663 -4.883717 -3.391172 -17.563560 -57.705741 -20.747459 -44.175734 -119.913711 -18.446761 -0.000000 -0.000001 -0.000003 0.031526 -4.248862 -0.679592 0.000000 0.000001 -3.045422 -5.000177 -7.999489 0.000070 -14.506502 59.915048 17.165158 -42.875823 117.078472 32.851875 0.000002 -0.000007 0.000003 0.071538 9.475393 1.091195 0.000001 -0.000009 3.044229 -5.000209 7.998852 -0.000154 -0.452623 -174.269176 3.099653 -179.999991 0.000005 -1.056994 169.384156 -1.365231 -0.574867 0.000002 -0.000002 0.084084 69.377667 6.418921 3.334892 25.456957 -7.355615 -0.000000 0.837304 174.160617 -1.439853 -0.000019 -0.000005 -1.006080 -12.249183 1.233679 0.683231 -0.000002 0.000001 -0.173464 71.911339 -6.189981 -3.877143 25.457560 7.355620 -0.001058 
52.963406 -6.669097 96.265991 -5.269386 1.000375 0.235543 -0.880580 -0.373887 0.086482 2.242341 -0.748156 0.162495 3.887469 -0.746155 0.171445 11.509711 4.164968 -3.571248 -1.754142 -4.972099 -3.396562 -17.580318 -57.679131 -20.767245 -44.156442 -119.942370 -18.364514 0.000003 -0.000001 -0.000000 0.031336 -4.194930 -0.677719 -0.000000 0.000002 -3.045530 -5.000179 -7.999489 0.000070 -14.508966 59.916503 17.168102 -42.872944 117.077393 32.801471 0.000001 -0.000007 0.000004 0.071587 9.449552 1.095721 0.000000 -0.000009 3.044701 -5.000209 7.998852 -0.000153 -0.449862 -174.270173 3.098336 -179.999991 0.000005 -1.056995 169.380263 -1.362273 -0.574408 0.000002 -0.000002 0.084114 69.382168 6.419930 3.332315 25.456955 -7.355613 -0.000001 0.839653 174.159620 -1.441947 -0.000019 -0.000005 -1.006080 -12.249492 1.235319 0.683232 -0.000001 0.000001 -0.173464 71.911824 -6.190198 -3.875352 25.457561 7.355621 -0.001058 
52.970905 -6.671120 96.265800 -5.271685 1.000511 0.238721 -0.879253 -0.374535 0.085546 2.245061 -0.749445 0.161382 3.890180 -0.747458 0.170348 11.502871 4.224210 -3.581222 -1.742205 -5.062431 -3.401913 -17.596968 -57.653053 -20.786895 -44.138410 -119.970333 -18.284705 -0.000002 -0.000001 -0.000003 0.031167 -4.142060 -0.675956 -0.000003 0.000001 -3.045621 -5.000178 -7.999489 0.000069 -14.511432 59.917944 17.171048 -42.868569 117.076983 32.750692 0.000000 -0.000007 0.000004 0.071646 9.424444 1.100151 0.000001 -0.000008 3.045172 -5.000211 7.998852 -0.000155 -0.446736 -174.271170 3.097016 -179.999991 0.000005 -1.056994 169.376479 -1.359302 -0.574942 0.000001 -0.000002 0.084131 69.386669 6.420939 3.329737 25.456957 -7.355615 -0.000001 0.842374 174.158622 -1.444198 -0.000020 -0.000005 -1.006080 -12.249697 1.237028 0.683232 -0.000001 0.000001 -0.173464 71.912316 -6.190384 -3.873653 25.457563 7.355621 -0.001058 
52.978004 -6.672186 96.262192 -5.274145 1.000646 0.241883 -0.877891 -0.375174 0.084600 2.247863 -0.750719 0.160258 3.892993 -0.748745 0.169239 11.496257 4.284108 -3.591230 -1.730620 -5.153889 -3.407212 -17.613535 -57.627269 -20.806450 -44.120269 -119.998227 -18.205499 0.000000 -0.000000 -0.000002 0.031003 -4.089800 -0.674253 0.000002 0.000000 -3.045704 -5.000178 -7.999489 0.000070 -14.513860 59.919303 17.173940 -42.864024 117.076505 32.700494 -0.000001 -0.000008 0.000003 0.071719 9.399754 1.104521 -0.000000 -0.000009 3.045640 -5.000209 7.998851 -0.000154 -0.443410 -174.272181 3.095696 -179.999991 0.000004 -1.056995 169.372791 -1.356333 -0.574475 0.000002 -0.000002 0.084143 69.391177 6.421946 3.327161 25.456957 -7.355614 -0.000001 0.845300 174.157639 -1.446551 -0.000020 -0.000005 -1.006080 -12.249806 1.238777 0.683230 -0.000002 0.000001 -0.173464 71.912705 -6.190599 -3.871768 25.457563 7.355620 -0.001058 
52.978405 -6.674260 96.263191 -5.276646 1.000782 0.245041 -0.876518 -0.375811 0.083650 2.250684 -0.751988 0.159130 3.895814 -0.750026 0.168127 11.489655 4.344166 -3.601237 -1.719124 -5.245619 -3.412480 -17.630052 -57.601506 -20.825921 -44.102159 -120.026122 -18.126518 -0.000002 -0.000002 -0.000003 0.030843 -4.037690 -0.672559 0.000000 0.000001 -3.045781 -5.000178 -7.999489 0.000069 -14.516264 59.920662 17.176816 -42.859471 117.076027 32.650473 0.000002 -0.000008 0.000004 0.071790 9.375163 1.108871 0.000001 -0.000009 3.046099 -5.000209 7.998852 -0.000154 -0.440033 -174.273165 3.094380 -179.999991 0.000005 -1.056994 169.369102 -1.353376 -0.575009 0.000002 -0.000002 0.084153 69.395678 6.422950 3.324485 25.456955 -7.355613 -0.000001 0.848278 174.156628 -1.448909 -0.000019 -0.000005 -1.006080 -12.249913 1.240536 0.683230 -0.000001 0.000001 -0.173464 71.913190 -6.190787 -3.869971 25.457558 7.355620 -0.001058 
52.990505 -6.667015 96.251091 -5.279067 1.000917 0.248207 -0.875167 -0.376452 0.082707 2.253465 -0.753265 0.158008 3.898595 -0.751318 0.167022 11.482964 4.403907 -3.611197 -1.707441 -5.336792 -3.417708 -17.646574 -57.575633 -20.845428 -44.082905 -120.054740 -18.045799 -0.000002 -0.000001 -0.000001 0.030683 -3.985270 -0.670839 -0.000003 0.000002 -3.045862 -5.000177 -7.999489 0.000071 -14.518689 59.922015 17.179710 -42.855093 117.075603 32.600250 0.000003 -0.000007 0.000004 0.071858 9.350365 1.113251 0.000000 -0.000008 3.046570 -5.000210 7.998852 -0.000154 -0.436757 -174.274175 3.093055 -179.999991 0.000005 -1.056994 169.365400 -1.351386 -0.574725 0.000001 -0.000002 0.084166 69.400172 6.423958 3.321909 25.456953 -7.355614 -0.000000 0.851152 174.155644 -1.451236 -0.000019 -0.000005 -1.006080 -12.250025 1.242275 0.683229 -0.000003 0.000001 -0.173464 71.913580 -6.191004 -3.868182 25.457565 7.355620 -0.001058 
52.989304 -6.670346 96.252495 -5.281289 1.001053 0.251394 -0.873863 -0.377104 0.081777 2.256135 -0.754565 0.156903 3.901267 -0.752629 0.165930 11.476066 4.462828 -3.621089 -1.695349 -5.426576 -3.422908 -17.663129 -57.549330 -20.864966 -44.064897 -120.082635 -17.965703 0.000001 -0.000000 0.000002 0.030508 -3.932101 -0.669040 -0.000000 0.000001 -3.045963 -5.000180 -7.999489 0.000067 -14.521112 59.923374 17.182603 -42.851883 117.074401 32.550455 -0.000002 -0.000006 0.000006 0.071914 9.325043 1.117701 -0.000003 -0.000009 3.047041 -5.000212 7.998852 -0.000154 -0.433737 -174.275159 3.091734 -179.999991 0.000004 -1.056994 169.361617 -1.348428 -0.574262 0.000002 -0.000002 0.084187 69.404680 6.424963 3.319327 25.456957 -7.355613 -0.000000 0.853765 174.154647 -1.453447 -0.000019 -0.000005 -1.006080 -12.250329 1.243964 0.683232 -0.000002 0.000001 -0.173464 71.914065 -6.191187 -3.866387 25.457558 7.355621 -0.001058 
52.973804 -6.683648 96.262993 -5.283157 1.001159 0.254610 -0.872639 -0.377773 0.080870 2.258636 -0.755897 0.155820 3.903757 -0.753975 0.164864 11.468758 4.520457 -3.630860 -1.682571 -5.514145 -3.428078 -17.679811 -57.522508 -20.884647 -44.045718 -120.111253 -17.882957 -0.000003 -0.000001 -0.000001 0.030318 -3.877722 -0.667124 -0.000001 0.000002 -3.046072 -5.000175 -7.999489 0.000069 -14.523627 59.924924 17.185615 -42.847829 117.074114 32.498156 0.000001 -0.000007 0.000005 0.071959 9.298904 1.122277 0.000000 -0.000009 3.047509 -5.000211 7.998851 -0.000154 -0.431126 -174.276170 3.090421 -179.999991 0.000004 -1.056994 169.357723 -1.345458 -0.574796 0.000001 -0.000002 0.084222 69.409195 6.426000 3.316654 25.456959 -7.355615 -0.000001 0.855963 174.153636 -1.455475 -0.000020 -0.000005 -1.006080 -12.250638 1.245565 0.683229 -0.000001 0.000001 -0.173464 71.914556 -6.191403 -3.864692 25.457558 7.355620 -0.001058 
